<svg width="156" height="41" viewBox="0 0 156 41" fill="none" xmlns="http://www.w3.org/2000/svg">
<path d="M54.856 15.456H49.288V12.912H63.568V15.456H57.976V30H54.856V15.456ZM70.1209 17.592C70.5849 17.592 70.9849 17.656 71.3209 17.784L71.2969 20.52C70.7849 20.312 70.2569 20.208 69.7129 20.208C68.6889 20.208 67.9049 20.504 67.3609 21.096C66.8329 21.688 66.5689 22.472 66.5689 23.448V30H63.5929V21.312C63.5929 20.032 63.5289 18.888 63.4009 17.88H66.2089L66.4489 20.016C66.7529 19.232 67.2329 18.632 67.8889 18.216C68.5449 17.8 69.2889 17.592 70.1209 17.592ZM84.349 17.88V30H81.397V28.056C81.029 28.728 80.501 29.256 79.813 29.64C79.125 30.008 78.341 30.192 77.461 30.192C76.405 30.192 75.469 29.936 74.653 29.424C73.837 28.912 73.205 28.184 72.757 27.24C72.309 26.296 72.085 25.2 72.085 23.952C72.085 22.704 72.309 21.6 72.757 20.64C73.221 19.664 73.861 18.912 74.677 18.384C75.493 17.84 76.421 17.568 77.461 17.568C78.341 17.568 79.125 17.76 79.813 18.144C80.501 18.512 81.029 19.032 81.397 19.704V17.88H84.349ZM78.277 27.84C79.269 27.84 80.037 27.496 80.581 26.808C81.125 26.12 81.397 25.152 81.397 23.904C81.397 22.624 81.125 21.64 80.581 20.952C80.037 20.264 79.261 19.92 78.253 19.92C77.261 19.92 76.485 20.28 75.925 21C75.381 21.704 75.109 22.688 75.109 23.952C75.109 25.2 75.381 26.16 75.925 26.832C76.485 27.504 77.269 27.84 78.277 27.84ZM93.3524 14.712C92.0564 14.712 91.4084 15.424 91.4084 16.848V17.88H94.1204V20.136H91.4084V30H88.4084V20.136H86.1044V17.88H88.4084V16.704C88.4084 15.264 88.7684 14.16 89.4884 13.392C90.2244 12.608 91.2724 12.216 92.6324 12.216C93.3844 12.216 94.0164 12.312 94.5284 12.504V14.88C94.0804 14.768 93.6884 14.712 93.3524 14.712ZM107.904 17.88V30H104.952V28.056C104.584 28.728 104.056 29.256 103.368 29.64C102.68 30.008 101.896 30.192 101.016 30.192C99.9597 30.192 99.0237 29.936 98.2077 29.424C97.3917 28.912 96.7597 28.184 96.3117 27.24C95.8637 26.296 95.6397 25.2 95.6397 23.952C95.6397 22.704 95.8637 21.6 96.3117 20.64C96.7757 19.664 97.4157 18.912 98.2317 18.384C99.0477 17.84 99.9757 17.568 101.016 17.568C101.896 17.568 102.68 17.76 103.368 18.144C104.056 18.512 104.584 19.032 104.952 19.704V17.88H107.904ZM101.832 27.84C102.824 27.84 103.592 27.496 104.136 26.808C104.68 26.12 104.952 25.152 104.952 23.904C104.952 22.624 104.68 21.64 104.136 20.952C103.592 20.264 102.816 19.92 101.808 19.92C100.816 19.92 100.04 20.28 99.4797 21C98.9357 21.704 98.6637 22.688 98.6637 23.952C98.6637 25.2 98.9357 26.16 99.4797 26.832C100.04 27.504 100.824 27.84 101.832 27.84ZM111.171 12.336H114.147V30H111.171V12.336ZM129.141 17.88V29.616C129.141 31.504 128.621 32.936 127.581 33.912C126.541 34.888 125.013 35.376 122.997 35.376C121.125 35.376 119.477 34.984 118.053 34.2L118.533 31.92C120.005 32.688 121.469 33.072 122.925 33.072C125.085 33.072 126.165 32 126.165 29.856V27.456C125.797 28.112 125.261 28.648 124.557 29.064C123.853 29.464 123.061 29.664 122.181 29.664C121.125 29.664 120.181 29.416 119.349 28.92C118.533 28.408 117.893 27.696 117.429 26.784C116.981 25.856 116.757 24.8 116.757 23.616C116.757 22.432 116.981 21.384 117.429 20.472C117.893 19.544 118.533 18.832 119.349 18.336C120.181 17.824 121.125 17.568 122.181 17.568C123.077 17.568 123.869 17.76 124.557 18.144C125.261 18.512 125.797 19.032 126.165 19.704V17.88H129.141ZM122.973 27.312C123.965 27.312 124.741 26.984 125.301 26.328C125.877 25.672 126.165 24.768 126.165 23.616C126.165 22.464 125.885 21.56 125.325 20.904C124.765 20.248 123.981 19.92 122.973 19.92C121.981 19.92 121.197 20.248 120.621 20.904C120.061 21.56 119.781 22.464 119.781 23.616C119.781 24.768 120.061 25.672 120.621 26.328C121.197 26.984 121.981 27.312 122.973 27.312ZM143.974 17.88V30H141.022V28.056C140.654 28.728 140.126 29.256 139.438 29.64C138.75 30.008 137.966 30.192 137.086 30.192C136.03 30.192 135.094 29.936 134.278 29.424C133.462 28.912 132.83 28.184 132.382 27.24C131.934 26.296 131.71 25.2 131.71 23.952C131.71 22.704 131.934 21.6 132.382 20.64C132.846 19.664 133.486 18.912 134.302 18.384C135.118 17.84 136.046 17.568 137.086 17.568C137.966 17.568 138.75 17.76 139.438 18.144C140.126 18.512 140.654 19.032 141.022 19.704V17.88H143.974ZM137.902 27.84C138.894 27.84 139.662 27.496 140.206 26.808C140.75 26.12 141.022 25.152 141.022 23.904C141.022 22.624 140.75 21.64 140.206 20.952C139.662 20.264 138.886 19.92 137.878 19.92C136.886 19.92 136.11 20.28 135.55 21C135.006 21.704 134.734 22.688 134.734 23.952C134.734 25.2 135.006 26.16 135.55 26.832C136.11 27.504 136.894 27.84 137.902 27.84ZM153.769 17.592C154.233 17.592 154.633 17.656 154.969 17.784L154.945 20.52C154.433 20.312 153.905 20.208 153.361 20.208C152.337 20.208 151.553 20.504 151.009 21.096C150.481 21.688 150.217 22.472 150.217 23.448V30H147.241V21.312C147.241 20.032 147.177 18.888 147.049 17.88H149.857L150.097 20.016C150.401 19.232 150.881 18.632 151.537 18.216C152.193 17.8 152.937 17.592 153.769 17.592Z" fill="white"/>
<circle cx="20.5" cy="20.5" r="20.5" fill="white"/>
<path d="M18.344 14.244H12.312V11.488H27.782V14.244H21.724V30H18.344V14.244Z" fill="#5B9BF3"/>
</svg>
